<svg width="32" height="32" viewBox="0 0 32 32" fill="none" xmlns="http://www.w3.org/2000/svg">
<rect width="32" height="32" rx="16" fill="white"/>
<path d="M17.2219 17.286H19.904C19.9636 16.8469 19.9636 16.4705 20.0828 16.0314C20.0828 15.9059 20.0828 15.8432 20.1424 15.7177C20.1424 15.5923 20.1424 15.4668 20.202 15.4041C20.202 15.2786 20.202 15.1531 20.2616 15.0904C20.2616 14.8395 20.3212 14.5258 20.3808 14.2749C19.3675 14.2749 18.2947 14.3376 17.3411 14.2749C17.3411 13.3967 17.2219 12.1421 17.4007 11.3893C17.5199 11.0756 17.7583 10.762 18.0563 10.6993C18.6523 10.4483 19.6656 10.6365 20.5 10.5738C20.5 10.5111 20.4404 10.5111 20.5 10.4483V7.68819C20.5 7.62546 20.3808 7.68819 20.3808 7.62546H20.3212C20.1424 7.62546 19.9636 7.62546 19.7848 7.56273H19.7252C19.3676 7.56273 19.0099 7.56273 18.7119 7.5H17.8775C17.6391 7.56273 17.4603 7.56273 17.2815 7.56273C17.2219 7.62546 17.1623 7.62546 17.043 7.62546C16.745 7.68819 16.447 7.81365 16.149 7.93911C15.255 8.37823 14.5993 9.25646 14.3609 10.1974C14.0629 11.2638 14.1821 12.7066 14.1225 14.1494C14.1225 14.1494 14.1225 14.1494 14.1225 14.2122H11.5V17.3487C12.394 17.3487 13.2881 17.3487 14.1225 17.3487C14.1821 19.7952 14.1225 21.9908 14.1225 24.5H17.1623C17.2219 21.9908 17.1623 19.7952 17.2219 17.286Z" fill="black"/>
</svg>
