<svg width="32" height="32" viewBox="0 0 32 32" fill="none" xmlns="http://www.w3.org/2000/svg">
<rect width="32" height="32" rx="16" fill="white"/>
<path d="M16.0132 7.00514C18.4233 6.93022 20.7604 7.6794 22.7323 8.95301C24.3391 10.0019 25.5076 11.5751 25.8728 13.4481C26.238 15.0963 25.7998 16.8194 24.7773 18.2429C23.9739 19.3666 22.9514 20.2656 21.8559 21.0897C20.1031 22.5132 18.1312 23.7119 16.0862 24.7607C15.9402 24.8356 15.7211 24.9106 15.502 24.9855C15.1368 25.0604 14.9177 24.8356 14.9907 24.536C15.0638 24.2363 15.2098 23.9366 15.2829 23.637C15.3559 23.3373 15.4289 23.0376 15.4289 22.7379C15.4289 22.5132 15.2829 22.2884 14.9907 22.2135H14.9177C12.7997 22.0637 10.7548 21.3145 9.07497 20.1158C7.46822 19.0669 6.44574 17.4188 6.08057 15.5458C5.78844 13.8227 6.29968 12.0246 7.46822 10.6012C8.85587 8.87809 10.9008 7.6794 13.1649 7.22989C14.1143 7.08005 15.0638 7.00514 16.0132 7.00514ZM15.9402 14.1973C16.5975 15.0214 17.2548 15.8455 17.9121 16.7445C18.0582 16.8943 18.2773 16.9692 18.4964 16.8943C18.7155 16.8194 18.8615 16.5947 18.8615 16.3699C18.8615 15.1712 18.8615 13.9725 18.8615 12.6989C18.8615 12.3992 18.6424 12.1745 18.3503 12.1745C18.0582 12.1745 17.8391 12.3243 17.766 12.624V12.6989C17.766 13.2983 17.766 13.8976 17.766 14.4969V14.8715C17.693 14.7966 17.693 14.7966 17.693 14.7217L15.8671 12.3992C15.7941 12.2494 15.648 12.1745 15.502 12.0996C15.1368 11.9497 14.8447 12.2494 14.8447 12.624C14.8447 13.5979 14.8447 14.6468 14.8447 15.6207C14.8447 15.8455 14.8447 16.0702 14.8447 16.295C14.8447 16.5947 15.0638 16.7445 15.3559 16.7445C15.648 16.7445 15.8671 16.5197 15.8671 16.295C15.8671 15.5458 15.8671 14.8715 15.8671 14.1224C15.7941 14.1973 15.8671 14.1973 15.9402 14.1973C15.8671 14.1973 15.9402 14.1973 15.9402 14.1973ZM19.4458 14.5719C19.4458 15.1712 19.4458 15.7706 19.4458 16.3699C19.4458 16.6696 19.5919 16.8943 19.884 16.8943C19.957 16.8943 19.957 16.8943 20.0301 16.8943C20.6874 16.8943 21.2717 16.8943 21.929 16.8943C22.2211 16.8943 22.4402 16.7445 22.5132 16.4448C22.5132 16.4448 22.5132 16.4448 22.5132 16.3699C22.5132 16.0702 22.2941 15.8455 22.002 15.8455C21.7829 15.8455 21.4908 15.8455 21.2717 15.8455C20.5413 15.8455 20.5413 15.8455 20.5413 15.1712C20.5413 15.0214 20.6144 15.0214 20.6874 15.0214C21.0526 15.0214 21.4908 15.0214 21.8559 15.0214C22.1481 15.0214 22.4402 14.8715 22.4402 14.5719C22.4402 14.2722 22.2941 14.0474 22.002 14.0474C21.929 14.0474 21.929 14.0474 21.8559 14.0474C21.4908 14.0474 21.0526 14.0474 20.6874 14.0474C20.5413 14.0474 20.4683 14.0474 20.5413 13.8976C20.5413 13.7478 20.5413 13.523 20.5413 13.3732C20.5413 13.2233 20.5413 13.2233 20.6874 13.2233C21.0526 13.2233 21.4908 13.2233 21.8559 13.2233C22.2211 13.2233 22.5132 12.9986 22.5132 12.6989C22.5132 12.3992 22.2941 12.1745 21.8559 12.1745C21.2717 12.1745 20.6874 12.1745 20.1031 12.1745C19.6649 12.1745 19.4458 12.3243 19.4458 12.7738C19.4458 13.3732 19.4458 13.9725 19.4458 14.5719ZM9.51318 14.5719C9.51318 15.1712 9.51318 15.7706 9.51318 16.3699C9.51318 16.8194 9.73228 16.9692 10.0974 16.9692C10.6817 16.9692 11.339 16.9692 11.9233 16.9692C12.2154 16.9692 12.5076 16.8194 12.5076 16.5197V16.4448C12.5076 16.1451 12.2154 15.9204 11.9233 15.9204C11.5581 15.9204 11.193 15.9204 10.8278 15.9204C10.6087 15.9204 10.5357 15.9204 10.5357 15.6956C10.5357 14.7217 10.5357 13.8227 10.5357 12.8487C10.5357 12.6989 10.5357 12.5491 10.4626 12.4742C10.3166 12.2494 10.0974 12.1745 9.87835 12.2494C9.65924 12.3243 9.51318 12.5491 9.51318 12.7738C9.51318 13.3732 9.51318 13.9725 9.51318 14.5719ZM13.0188 14.5719C13.0188 15.1712 13.0188 15.7706 13.0188 16.295C13.0188 16.6696 13.2379 16.8943 13.5301 16.8943C13.8222 16.8943 14.0413 16.6696 14.0413 16.295C14.0413 15.0963 14.0413 13.8976 14.0413 12.6989C14.0413 12.5491 14.0413 12.4742 13.9683 12.3992C13.8222 12.2494 13.6031 12.0996 13.384 12.1745C13.1649 12.2494 13.0188 12.4742 13.0188 12.6989C13.0188 13.3732 13.0188 13.9725 13.0188 14.5719Z" fill="black"/>
</svg>
