<svg width="57" height="31" viewBox="0 0 57 31" fill="none" xmlns="http://www.w3.org/2000/svg">
<path d="M35.178 1.024C35.178 0.448 35.754 0 36.394 0C37.098 0 37.61 0.448 37.61 1.024C37.61 1.6 37.098 2.048 36.394 2.048C35.69 2.048 35.178 1.6 35.178 1.024Z" fill="white"/>
<path d="M38.506 1.024C38.506 0.448 39.082 0 39.722 0C40.362 0 40.938 0.448 40.938 1.024C40.938 1.6 40.362 2.048 39.722 2.048C39.082 2.048 38.506 1.6 38.506 1.024Z" fill="white"/>
<path d="M41.898 1.024C41.898 0.448 42.474 0 43.114 0C43.754 0 44.33 0.448 44.33 1.024C44.33 1.6 43.754 2.048 43.114 2.048C42.474 2.048 41.898 1.6 41.898 1.024Z" fill="white"/>
<path d="M45.29 1.024C45.29 0.448 45.866 0 46.506 0C47.21 0 47.722 0.448 47.722 1.024C47.722 1.6 47.21 2.048 46.506 2.048C45.802 2.048 45.29 1.6 45.29 1.024Z" fill="white"/>
<path d="M37.3541 4.03206C37.3541 3.45606 37.9301 3.00806 38.5701 3.00806C39.2101 3.00806 39.7861 3.45606 39.7861 4.03206C39.7861 4.60806 39.2741 5.05606 38.5701 5.05606C37.9301 5.05606 37.3541 4.60806 37.3541 4.03206Z" fill="white"/>
<path d="M40.746 4.03206C40.746 3.45606 41.322 3.00806 41.962 3.00806C42.602 3.00806 43.178 3.45606 43.178 4.03206C43.178 4.60806 42.602 5.05606 41.962 5.05606C41.322 5.05606 40.746 4.60806 40.746 4.03206Z" fill="white"/>
<path d="M44.138 4.03206C44.138 3.45606 44.714 3.00806 45.354 3.00806C45.994 3.00806 46.57 3.45606 46.57 4.03206C46.57 4.60806 45.994 5.05606 45.354 5.05606C44.714 5.05606 44.138 4.60806 44.138 4.03206Z" fill="white"/>
<path d="M47.53 4.03206C47.53 3.45606 48.106 3.00806 48.746 3.00806C49.386 3.00806 49.962 3.45606 49.962 4.03206C49.962 4.60806 49.386 5.05606 48.746 5.05606C48.042 5.05606 47.53 4.60806 47.53 4.03206Z" fill="white"/>
<path d="M39.5941 7.10408C39.5941 6.52808 40.1701 6.08008 40.8101 6.08008C41.4501 6.08008 42.0261 6.52808 42.0261 7.10408C42.0261 7.68008 41.4501 8.12808 40.8101 8.12808C40.1701 8.12808 39.5941 7.61608 39.5941 7.10408Z" fill="white"/>
<path d="M42.986 7.10408C42.986 6.52808 43.562 6.08008 44.202 6.08008C44.842 6.08008 45.418 6.52808 45.418 7.10408C45.418 7.68008 44.842 8.12808 44.202 8.12808C43.562 8.12808 42.986 7.61608 42.986 7.10408Z" fill="white"/>
<path d="M46.3781 7.10408C46.3781 6.52808 46.9541 6.08008 47.5941 6.08008C48.2341 6.08008 48.8101 6.52808 48.8101 7.10408C48.8101 7.68008 48.2341 8.12808 47.5941 8.12808C46.8901 8.12808 46.3781 7.61608 46.3781 7.10408Z" fill="white"/>
<path d="M49.7701 7.10408C49.7701 6.52808 50.346 6.08008 50.986 6.08008C51.69 6.08008 52.202 6.52808 52.202 7.10408C52.202 7.68008 51.69 8.12808 50.986 8.12808C50.282 8.12808 49.7701 7.61608 49.7701 7.10408Z" fill="white"/>
<path d="M45.226 10.1119C45.226 9.53589 45.802 9.08789 46.442 9.08789C47.082 9.08789 47.658 9.53589 47.658 10.1119C47.658 10.6879 47.082 11.1359 46.442 11.1359C45.738 11.1359 45.226 10.6879 45.226 10.1119Z" fill="white"/>
<path d="M48.618 10.1119C48.618 9.53589 49.194 9.08789 49.834 9.08789C50.474 9.08789 51.05 9.53589 51.05 10.1119C51.05 10.6879 50.474 11.1359 49.834 11.1359C49.13 11.1359 48.618 10.6879 48.618 10.1119Z" fill="white"/>
<path d="M51.946 10.1119C51.946 9.53589 52.522 9.08789 53.162 9.08789C53.866 9.08789 54.378 9.53589 54.378 10.1119C54.378 10.6879 53.802 11.1359 53.162 11.1359C52.522 11.1359 51.946 10.6879 51.946 10.1119Z" fill="white"/>
<path d="M44.074 13.1199C44.074 12.5439 44.586 12.0959 45.29 12.0959C45.93 12.0959 46.506 12.5439 46.506 13.1199C46.506 13.6959 45.93 14.1439 45.29 14.1439C44.586 14.1439 44.074 13.6959 44.074 13.1199Z" fill="white"/>
<path d="M47.466 13.1199C47.466 12.5439 48.042 12.0959 48.682 12.0959C49.322 12.0959 49.898 12.5439 49.898 13.1199C49.898 13.6959 49.322 14.1439 48.682 14.1439C48.042 14.1439 47.466 13.6959 47.466 13.1199Z" fill="white"/>
<path d="M50.858 13.1199C50.858 12.5439 51.434 12.0959 52.074 12.0959C52.714 12.0959 53.29 12.5439 53.29 13.1199C53.29 13.6959 52.714 14.1439 52.074 14.1439C51.37 14.1439 50.858 13.6959 50.858 13.1199Z" fill="white"/>
<path d="M54.186 13.1199C54.186 12.5439 54.762 12.0959 55.402 12.0959C56.042 12.0959 56.618 12.5439 56.618 13.1199C56.618 13.6959 56.042 14.1439 55.402 14.1439C54.762 14.1439 54.186 13.6959 54.186 13.1199Z" fill="white"/>
<path d="M35.178 25.2801C35.178 25.8561 35.754 26.3041 36.394 26.3041C37.098 26.3041 37.61 25.8561 37.61 25.2801C37.61 24.7041 37.098 24.2561 36.394 24.2561C35.69 24.2561 35.178 24.7041 35.178 25.2801Z" fill="white"/>
<path d="M38.506 25.2801C38.506 25.8561 39.082 26.3041 39.722 26.3041C40.362 26.3041 40.938 25.8561 40.938 25.2801C40.938 24.7041 40.362 24.2561 39.722 24.2561C39.082 24.2561 38.506 24.7041 38.506 25.2801Z" fill="white"/>
<path d="M41.898 25.2801C41.898 25.8561 42.474 26.3041 43.114 26.3041C43.754 26.3041 44.33 25.8561 44.33 25.2801C44.33 24.7041 43.754 24.2561 43.114 24.2561C42.474 24.2561 41.898 24.7041 41.898 25.2801Z" fill="white"/>
<path d="M45.29 25.2801C45.29 25.8561 45.866 26.3041 46.506 26.3041C47.21 26.3041 47.722 25.8561 47.722 25.2801C47.722 24.7041 47.21 24.2561 46.506 24.2561C45.802 24.2561 45.29 24.7041 45.29 25.2801Z" fill="white"/>
<path d="M37.3541 22.2081C37.3541 22.7841 37.9301 23.2321 38.5701 23.2321C39.2101 23.2321 39.7861 22.7841 39.7861 22.2081C39.7861 21.6321 39.2741 21.1841 38.5701 21.1841C37.9301 21.2481 37.3541 21.6961 37.3541 22.2081Z" fill="white"/>
<path d="M40.746 22.2081C40.746 22.7841 41.322 23.2321 41.962 23.2321C42.602 23.2321 43.178 22.7841 43.178 22.2081C43.178 21.6321 42.602 21.1841 41.962 21.1841C41.322 21.2481 40.746 21.6961 40.746 22.2081Z" fill="white"/>
<path d="M44.138 22.2081C44.138 22.7841 44.714 23.2321 45.354 23.2321C45.994 23.2321 46.57 22.7841 46.57 22.2081C46.57 21.6321 45.994 21.1841 45.354 21.1841C44.714 21.2481 44.138 21.6961 44.138 22.2081Z" fill="white"/>
<path d="M47.53 22.2081C47.53 22.7841 48.106 23.2321 48.746 23.2321C49.386 23.2321 49.962 22.7841 49.962 22.2081C49.962 21.6321 49.386 21.1841 48.746 21.1841C48.042 21.2481 47.53 21.6961 47.53 22.2081Z" fill="white"/>
<path d="M42.986 19.2C42.986 19.776 43.562 20.224 44.202 20.224C44.842 20.224 45.418 19.776 45.418 19.2C45.418 18.624 44.842 18.176 44.202 18.176C43.562 18.176 42.986 18.624 42.986 19.2Z" fill="white"/>
<path d="M46.3781 19.2C46.3781 19.776 46.9541 20.224 47.5941 20.224C48.2341 20.224 48.8101 19.776 48.8101 19.2C48.8101 18.624 48.2341 18.176 47.5941 18.176C46.8901 18.176 46.3781 18.624 46.3781 19.2Z" fill="white"/>
<path d="M49.7701 19.2C49.7701 19.776 50.346 20.224 50.986 20.224C51.69 20.224 52.202 19.776 52.202 19.2C52.202 18.624 51.69 18.176 50.986 18.176C50.282 18.176 49.7701 18.624 49.7701 19.2Z" fill="white"/>
<path d="M45.226 16.192C45.226 16.768 45.802 17.216 46.442 17.216C47.082 17.216 47.658 16.768 47.658 16.192C47.658 15.616 47.082 15.168 46.442 15.168C45.738 15.168 45.226 15.616 45.226 16.192Z" fill="white"/>
<path d="M48.618 16.192C48.618 16.768 49.194 17.216 49.834 17.216C50.474 17.216 51.05 16.768 51.05 16.192C51.05 15.616 50.474 15.168 49.834 15.168C49.13 15.168 48.618 15.616 48.618 16.192Z" fill="white"/>
<path d="M51.946 16.192C51.946 16.768 52.522 17.216 53.162 17.216C53.866 17.216 54.378 16.768 54.378 16.192C54.378 15.616 53.802 15.168 53.162 15.168C52.522 15.168 51.946 15.616 51.946 16.192Z" fill="white"/>
<path d="M44.138 9.40796H38.57C38.442 9.40796 38.25 9.40796 38.122 9.47196C36.394 9.72796 34.922 11.136 34.73 12.864C34.666 13.12 34.73 13.44 34.73 13.696C34.858 14.976 35.882 15.872 37.162 15.936C37.29 15.936 37.418 15.936 37.546 15.936H39.594C39.658 15.936 39.722 15.936 39.786 15.936C40.298 15.936 40.682 16.32 40.746 16.832C40.746 16.96 40.746 17.024 40.746 17.152C40.682 17.856 39.914 18.496 39.146 18.496C39.082 18.496 39.018 18.496 38.954 18.496H33.578L33.13 19.904L33.066 20.16L33.002 20.288V20.352C33.002 20.352 33.002 20.416 33.066 20.416H33.514H39.338C39.466 20.416 39.658 20.416 39.786 20.352C41.514 20.096 42.986 18.688 43.178 16.96C43.178 16.704 43.178 16.384 43.178 16.128C43.05 14.848 42.026 13.952 40.746 13.888C40.618 13.888 40.49 13.888 40.298 13.888H38.25C38.186 13.888 38.122 13.888 38.058 13.888C37.546 13.888 37.162 13.504 37.098 12.992C37.098 12.864 37.098 12.8 37.098 12.672C37.162 11.968 37.802 11.392 38.57 11.328C38.634 11.328 38.698 11.328 38.762 11.328H43.69L44.266 9.53596V9.47196L44.138 9.40796Z" fill="white"/>
<path d="M8.74604 11.2639H8.55403H8.49003V11.1999L9.13003 10.0479C9.19403 9.9199 9.25803 9.8559 9.32203 9.7279C9.57803 9.4719 9.89803 9.3439 10.218 9.2799C10.602 9.2159 11.05 9.2159 11.434 9.2159H17.77L18.41 7.0399L18.474 6.9119C18.474 6.9119 18.474 6.8479 18.41 6.8479H6.12204C5.29004 6.8479 4.39404 6.8479 3.56204 6.9759C2.85804 7.0399 2.21804 7.3599 1.70604 7.8719C1.51404 8.0639 1.38604 8.2559 1.25804 8.5119L0.0420387 10.8159C-0.0219613 10.9439 -0.0219614 11.1359 0.106039 11.1999C0.234039 11.3279 0.426039 11.3279 0.554039 11.3279H5.93004L3.75404 18.4959C3.62604 19.0079 3.75404 19.3919 4.13804 19.7759C4.45804 20.0959 4.90604 20.2879 5.35404 20.2879H5.41804H9.38603L12.138 11.1999H8.74604V11.2639Z" fill="white"/>
<path d="M32.106 14.912C31.978 14.848 31.914 14.784 31.786 14.72C31.722 14.656 31.658 14.656 31.594 14.656C32.362 14.144 33.002 13.44 33.194 12.544C33.258 12.288 33.258 11.904 33.258 11.648C33.13 10.368 31.914 9.47196 30.57 9.40796C30.442 9.40796 30.122 9.40796 30.122 9.40796H24.618C23.914 9.40796 23.85 9.40796 23.402 9.79196C23.338 9.85596 23.274 9.98396 23.274 9.98396L15.082 18.56C15.082 18.56 15.018 18.624 14.954 18.624C14.89 18.624 14.826 18.56 14.826 18.496L17.066 11.264H14.698L12.074 19.84L11.946 20.288C11.946 20.288 11.946 20.352 12.01 20.352H12.138H16.618L24.618 11.328H29.738C29.738 11.328 29.994 11.328 30.058 11.328C30.57 11.328 30.954 11.712 31.018 12.224C31.018 12.352 31.018 12.416 31.018 12.544C30.954 13.248 29.93 13.888 29.226 13.888C29.162 13.888 29.098 13.888 29.034 13.888H27.69L27.114 15.808H29.418C29.482 15.808 29.546 15.808 29.61 15.808C30.122 15.808 30.506 16.192 30.57 16.704C30.57 16.832 30.57 16.896 30.57 17.024C30.506 17.728 29.738 18.368 28.97 18.368C28.906 18.368 28.842 18.368 28.778 18.368H25.45L27.306 12.352H24.746L22.314 20.224V20.288C22.314 20.288 22.314 20.352 22.378 20.352H22.442H29.098C29.098 20.352 29.546 20.352 29.674 20.352C31.53 20.288 33.13 18.816 33.258 17.152C33.258 16.896 33.258 16.64 33.194 16.384C33.002 15.808 32.618 15.296 32.106 14.912Z" fill="white"/>
<path d="M6.95405 27.3281L6.18605 27.5201C6.37805 28.0321 6.57005 28.6081 6.69805 29.1841L7.53005 28.8641C7.33805 28.4161 7.14605 27.9041 6.95405 27.3281Z" fill="white"/>
<path d="M6.95405 27.3281L6.18605 27.5201C6.37805 28.0321 6.57005 28.6081 6.69805 29.1841L7.53005 28.8641C7.33805 28.4161 7.14605 27.9041 6.95405 27.3281Z" fill="white"/>
<path d="M3.94604 27.3921C3.81804 28.1601 3.49804 28.8641 3.11404 29.5041L3.88204 30.0161C4.26604 29.3121 4.58604 28.5441 4.77804 27.5841L3.94604 27.3921Z" fill="white"/>
<path d="M3.94604 27.3921C3.81804 28.1601 3.49804 28.8641 3.11404 29.5041L3.88204 30.0161C4.26604 29.3121 4.58604 28.5441 4.77804 27.5841L3.94604 27.3921Z" fill="white"/>
<path d="M8.93804 23.104C9.89804 23.04 10.73 22.912 11.498 22.656L11.05 21.824C10.154 22.144 9.13004 22.336 7.97804 22.4V26.368C7.91404 27.712 7.65804 28.8 7.14604 29.568L7.85004 30.272C8.49004 29.312 8.87404 28.032 8.93804 26.368V25.472H9.89804V30.272H10.858V25.472H11.69V24.576H8.93804V23.104Z" fill="white"/>
<path d="M8.93804 23.104C9.89804 23.04 10.73 22.912 11.498 22.656L11.05 21.824C10.154 22.144 9.13004 22.336 7.97804 22.4V26.368C7.91404 27.712 7.65804 28.8 7.14604 29.568L7.85004 30.272C8.49004 29.312 8.87404 28.032 8.93804 26.368V25.472H9.89804V30.272H10.858V25.472H11.69V24.576H8.93804V23.104Z" fill="white"/>
<path d="M7.46604 26.1121H5.93004V25.3441H7.59404V24.5121H6.69804C6.82604 24.2561 6.95404 23.9361 7.01804 23.6801L6.18604 23.3601C6.05804 23.7441 5.99404 24.1281 5.80204 24.5121H4.97004C4.84204 24.0641 4.71404 23.6801 4.58604 23.3601L3.75404 23.6801C3.88204 23.9361 4.01004 24.1921 4.13804 24.5121H3.17804V25.4081H4.90604V26.1761H3.30604V27.0721H4.90604V29.2481C4.90604 29.4401 4.77804 29.5041 4.58604 29.5041C4.45804 29.5041 4.33004 29.5041 4.20204 29.4401L4.39404 30.3361H4.84204C5.48204 30.3361 5.80204 30.0801 5.80204 29.5041V27.0721H7.33804V26.1121H7.46604Z" fill="white"/>
<path d="M7.46604 26.1121H5.93004V25.3441H7.59404V24.5121H6.69804C6.82604 24.2561 6.95404 23.9361 7.01804 23.6801L6.18604 23.3601C6.05804 23.7441 5.99404 24.1281 5.80204 24.5121H4.97004C4.84204 24.0641 4.71404 23.6801 4.58604 23.3601L3.75404 23.6801C3.88204 23.9361 4.01004 24.1921 4.13804 24.5121H3.17804V25.4081H4.90604V26.1761H3.30604V27.0721H4.90604V29.2481C4.90604 29.4401 4.77804 29.5041 4.58604 29.5041C4.45804 29.5041 4.33004 29.5041 4.20204 29.4401L4.39404 30.3361H4.84204C5.48204 30.3361 5.80204 30.0801 5.80204 29.5041V27.0721H7.33804V26.1121H7.46604Z" fill="white"/>
<path d="M7.59404 22.464H5.93004C5.80204 22.144 5.73804 21.888 5.61004 21.696L4.58604 21.888C4.71404 22.08 4.84204 22.272 4.97004 22.528H3.37004V23.424H7.59404V22.464Z" fill="white"/>
<path d="M7.59404 22.464H5.93004C5.80204 22.144 5.73804 21.888 5.61004 21.696L4.58604 21.888C4.71404 22.08 4.84204 22.272 4.97004 22.528H3.37004V23.424H7.59404V22.464Z" fill="white"/>
<path d="M19.562 28.1601C19.306 28.1601 19.114 28.2241 18.858 28.2241V25.9841H19.69V25.1521H14.698V25.9841H15.338V28.4161C15.082 28.4161 14.89 28.4161 14.634 28.4161L14.762 29.2481C15.914 29.1841 17.002 29.1201 17.962 29.0561V29.8881H18.794V28.9921L19.498 28.9281V28.1601H19.562ZM17.962 28.2881C17.386 28.3521 16.81 28.3521 16.17 28.4161V28.0321H17.962V28.2881ZM17.962 27.3281H16.17V26.9441H17.962V27.3281ZM17.962 26.3681H16.17V26.0481H17.962V26.3681Z" fill="white"/>
<path d="M19.562 28.1601C19.306 28.1601 19.114 28.2241 18.858 28.2241V25.9841H19.69V25.1521H14.698V25.9841H15.338V28.4161C15.082 28.4161 14.89 28.4161 14.634 28.4161L14.762 29.2481C15.914 29.1841 17.002 29.1201 17.962 29.0561V29.8881H18.794V28.9921L19.498 28.9281V28.1601H19.562ZM17.962 28.2881C17.386 28.3521 16.81 28.3521 16.17 28.4161V28.0321H17.962V28.2881ZM17.962 27.3281H16.17V26.9441H17.962V27.3281ZM17.962 26.3681H16.17V26.0481H17.962V26.3681Z" fill="white"/>
<path d="M17.514 24.8321H20.202V28.9921C20.202 29.1841 20.074 29.3121 19.882 29.3121C19.626 29.3121 19.434 29.3121 19.114 29.2481L19.306 30.0801C19.562 30.0801 19.882 30.1441 20.202 30.1441C20.842 30.1441 21.098 29.8241 21.098 29.2481V22.0161H17.45V24.8321H17.514ZM18.474 22.7201H20.202V23.0401H18.474V22.7201ZM18.474 23.7441H20.202V24.1921H18.474V23.7441Z" fill="white"/>
<path d="M17.514 24.8321H20.202V28.9921C20.202 29.1841 20.074 29.3121 19.882 29.3121C19.626 29.3121 19.434 29.3121 19.114 29.2481L19.306 30.0801C19.562 30.0801 19.882 30.1441 20.202 30.1441C20.842 30.1441 21.098 29.8241 21.098 29.2481V22.0161H17.45V24.8321H17.514ZM18.474 22.7201H20.202V23.0401H18.474V22.7201ZM18.474 23.7441H20.202V24.1921H18.474V23.7441Z" fill="white"/>
<path d="M16.874 22.0161H13.226V30.2081H14.186V24.8321H16.874V22.0161ZM15.914 24.1281H14.122V23.7441H15.914V24.1281ZM15.914 23.1041H14.122V22.7201H15.914V23.1041Z" fill="white"/>
<path d="M16.874 22.0161H13.226V30.2081H14.186V24.8321H16.874V22.0161ZM15.914 24.1281H14.122V23.7441H15.914V24.1281ZM15.914 23.1041H14.122V22.7201H15.914V23.1041Z" fill="white"/>
<path d="M23.8501 25.0881C23.5301 25.6641 23.2741 26.1121 23.0181 26.3681C22.8901 26.4961 22.7621 26.5601 22.6341 26.6241L22.8901 27.3921C23.5301 27.3281 24.2341 27.2001 24.9381 26.9441L25.0021 27.3281L25.7061 27.1361C25.5781 26.4321 25.4501 25.7921 25.2581 25.2801L24.5541 25.4721C24.6181 25.7281 24.6821 25.9841 24.7461 26.2401C24.4261 26.3041 24.1701 26.3681 23.8501 26.4321C24.2981 25.7921 24.9381 24.8321 25.6421 23.4241L24.8101 23.1041C24.6181 23.4881 24.4261 23.8721 24.2981 24.1921L23.5941 24.3201C23.9781 23.6801 24.3621 22.9121 24.7461 21.9521L23.8501 21.6321C23.5941 22.5281 23.3381 23.2961 22.9541 24.0641C22.8261 24.2561 22.6981 24.3201 22.5701 24.3841L22.8261 25.2161C23.2101 25.2161 23.5301 25.1521 23.8501 25.0881Z" fill="white"/>
<path d="M23.8501 25.0881C23.5301 25.6641 23.2741 26.1121 23.0181 26.3681C22.8901 26.4961 22.7621 26.5601 22.6341 26.6241L22.8901 27.3921C23.5301 27.3281 24.2341 27.2001 24.9381 26.9441L25.0021 27.3281L25.7061 27.1361C25.5781 26.4321 25.4501 25.7921 25.2581 25.2801L24.5541 25.4721C24.6181 25.7281 24.6821 25.9841 24.7461 26.2401C24.4261 26.3041 24.1701 26.3681 23.8501 26.4321C24.2981 25.7921 24.9381 24.8321 25.6421 23.4241L24.8101 23.1041C24.6181 23.4881 24.4261 23.8721 24.2981 24.1921L23.5941 24.3201C23.9781 23.6801 24.3621 22.9121 24.7461 21.9521L23.8501 21.6321C23.5941 22.5281 23.3381 23.2961 22.9541 24.0641C22.8261 24.2561 22.6981 24.3201 22.5701 24.3841L22.8261 25.2161C23.2101 25.2161 23.5301 25.1521 23.8501 25.0881Z" fill="white"/>
<path d="M29.5461 28.6081V27.9041H28.0101V26.8801H29.7381V26.0481H28.7781C28.7141 25.7281 28.6501 25.4721 28.5861 25.2161L27.8181 25.3441C27.8821 25.5361 28.0101 25.7921 28.0741 26.0481H26.9861V26.8801H27.3701V28.6081H29.5461Z" fill="white"/>
<path d="M29.5461 28.6081V27.9041H28.0101V26.8801H29.7381V26.0481H28.7781C28.7141 25.7281 28.6501 25.4721 28.5861 25.2161L27.8181 25.3441C27.8821 25.5361 28.0101 25.7921 28.0741 26.0481H26.9861V26.8801H27.3701V28.6081H29.5461Z" fill="white"/>
<path d="M25.8341 28.8641C25.7061 28.3521 25.5141 27.9041 25.3861 27.4561L24.8101 27.6481C24.9381 28.0961 25.1301 28.6721 25.2581 29.2481L25.8981 28.9281V30.0801H26.7941V22.8481H30.0581V28.9281C30.0581 29.1201 29.9941 29.2481 29.8021 29.2481H28.6501L28.9061 30.0801H30.0581C30.6341 30.0801 30.8901 29.7601 30.8901 29.1201V22.0161H25.8341V28.8641Z" fill="white"/>
<path d="M25.8341 28.8641C25.7061 28.3521 25.5141 27.9041 25.3861 27.4561L24.8101 27.6481C24.9381 28.0961 25.1301 28.6721 25.2581 29.2481L25.8981 28.9281V30.0801H26.7941V22.8481H30.0581V28.9281C30.0581 29.1201 29.9941 29.2481 29.8021 29.2481H28.6501L28.9061 30.0801H30.0581C30.6341 30.0801 30.8901 29.7601 30.8901 29.1201V22.0161H25.8341V28.8641Z" fill="white"/>
<path d="M23.786 27.8402C23.914 28.4162 23.978 29.0562 24.042 29.7602L24.81 29.5682C24.682 28.8642 24.618 28.2882 24.49 27.7122L23.786 27.8402Z" fill="white"/>
<path d="M23.786 27.8402C23.914 28.4162 23.978 29.0562 24.042 29.7602L24.81 29.5682C24.682 28.8642 24.618 28.2882 24.49 27.7122L23.786 27.8402Z" fill="white"/>
<path d="M22.5701 29.8881L23.3381 30.1441C23.4661 29.5041 23.5941 28.7361 23.6581 27.9041L22.8901 27.7761C22.8261 28.5441 22.6981 29.2481 22.5701 29.8881Z" fill="white"/>
<path d="M22.5701 29.8881L23.3381 30.1441C23.4661 29.5041 23.5941 28.7361 23.6581 27.9041L22.8901 27.7761C22.8261 28.5441 22.6981 29.2481 22.5701 29.8881Z" fill="white"/>
<path d="M26.858 25.152H29.802V24.32H29.162C29.29 24 29.418 23.616 29.482 23.168L28.714 23.04C28.65 23.488 28.586 23.872 28.458 24.256H27.754L28.202 24.064C28.074 23.744 27.946 23.36 27.754 23.04L27.114 23.296C27.242 23.552 27.434 23.872 27.562 24.256H26.922V25.152H26.858Z" fill="white"/>
<path d="M26.858 25.152H29.802V24.32H29.162C29.29 24 29.418 23.616 29.482 23.168L28.714 23.04C28.65 23.488 28.586 23.872 28.458 24.256H27.754L28.202 24.064C28.074 23.744 27.946 23.36 27.754 23.04L27.114 23.296C27.242 23.552 27.434 23.872 27.562 24.256H26.922V25.152H26.858Z" fill="white"/>
</svg>
